<svg xmlns="http://www.w3.org/2000/svg" viewBox="0 0 448.7 155.19"><defs><style>.cls-1{fill:#fff;stroke:#060707;}.cls-1,.cls-2,.cls-3,.cls-4,.cls-5{stroke-miterlimit:10;}.cls-2{fill:#42a9c6;stroke:#000;}.cls-3{fill:#f8ab06;}.cls-3,.cls-4{stroke:#030102;}.cls-4{fill:#225985;}.cls-5{fill:#bcdcdf;stroke:#010101;}</style></defs><g id="Capa_2" data-name="Capa 2"><g id="Capa_1-2" data-name="Capa 1"><path class="cls-1" d="M28.81,13.53c0,8.34-6.26,11-14.3,11-7.75,0-14-2.68-14-11C.5,4,6.76,1.46,14.51,1.46,22.55,1.46,28.81,4,28.81,13.53ZM39.54,119.46c-3.88,2.24-10,3.58-16.84,3.58-14,0-21.31-7.3-21.31-21.76,0-9.23.9-17.73.9-30.39V44.07H24.94V67.91c0,12.52-.75,21.45-.75,27.26,0,5.07,1.94,7,5.81,7a16,16,0,0,0,6.71-1.34Z"/><path class="cls-2" d="M59.42,85.21c6.93,5,12.88,8.91,17.86.25C75.44,79.4,74.85,72.26,74.85,65c0-9.79,1.12-19.33,5-26.27-2.25-.43-4-2.22-5.39-3.56C70.71,27.78,75.6,17.77,65.92,18c-12.23,11.54-16.1,30-16.1,48a92,92,0,0,0,2,19.65C54.21,83.86,57.13,83.38,59.42,85.21Z"/><path class="cls-3" d="M110.5,106c5.53,6.45,14.45,1.87,18.95,9.72a8.9,8.9,0,0,1,2.47-4.52c11.46-11.31,15.67-28.82,15.67-45.41A84.69,84.69,0,0,0,143,37.38c-1.41,10.38-14.31,5.35-21.87,11a1.19,1.19,0,0,0-.22.33,77.45,77.45,0,0,1,1.62,16.8c0,13.53-2.36,26.6-10.79,33a17.91,17.91,0,0,1-2.69,1.68C108.79,102.5,109.08,104.61,110.5,106Z"/><path class="cls-4" d="M117.85,121.78c4-2,5-8.85,11.8-5.11a7.8,7.8,0,0,1,.15-1.17c-4.5-7.85-13.42-3.27-19-9.72-1.43-1.42-1.72-3.53-1.42-5.88a22.6,22.6,0,0,1-10.51,2.32c-12.34,0-18.58-7-21.56-16.83-5,8.67-10.92,4.7-17.85-.25-2.29-1.83-5.21-1.35-7.61.38,4.25,19.41,15.93,36.19,41.06,38.37l.35,0a16.46,16.46,0,0,1,3.54-2.15C103.85,120.78,111.85,123.78,117.85,121.78Z"/><path class="cls-1" d="M173.85,144.39l-.42-2.94a8.93,8.93,0,0,0-9-7.63H162.5c-12.32,0-20.34-4.17-28.31-8.51a8.81,8.81,0,0,1-4.59-8.47c-6.81-3.74-7.84,3.13-11.8,5.11-6,2-14-1-21,0a16.71,16.71,0,0,0-3.54,2.15,8.07,8.07,0,0,1,1.69.36c21.2,7,30.67,30.22,67.4,30.22,1.12,0,2.31-.06,3.51-.17A8.9,8.9,0,0,0,173.85,144.39Z"/><path class="cls-5" d="M74.17,35.61c1.35,1.35,3.14,3.14,5.39,3.56,3.59-6.47,9.54-10.68,19.18-10.68,13.21,0,19.56,8.74,22.21,20.45a1.36,1.36,0,0,1,.22-.33C128.73,43,141.63,48,143,37.6c-6.3-17.46-19.73-30.86-43.86-30.86-15.12,0-25.92,4.49-33.51,11.65C75.35,18.18,70.46,28.19,74.17,35.61Z"/><path class="cls-1" d="M216,122.89c-1.34-2.54-2.68-6.56-3.57-13-6.86,9.68-16.54,13.4-27,13.4-17.88,0-23.69-12.21-23.69-23.39,0-9.83,1.34-16.83,1.34-30.69,0-10.58-.74-16.39-2.68-22.2l20.56-4.32c2.38,4.32,4.92,11.32,4.92,22.65,0,10.72-1.34,21.3-1.34,28.31,0,5.66,1.93,10,7.89,10,11.62,0,15.65-18,15.65-38.89V44.07H230.7V95.92c0,11.47,1.19,17.73,2.83,23.54Z"/><path class="cls-1" d="M310,111.12c-2.53,3.27-13.11,12.81-31,12.81-21.9,0-37.25-12.22-37.25-38,0-24.73,14.16-44.4,38.74-44.4,19.82,0,27.72,12.66,27.72,25.33,0,8.94-2.39,17.58-4,21.15H263.49c.74,9.09,5.36,17.29,17,17.29a29.81,29.81,0,0,0,20.12-8.2Zm-21.3-38.44a24.41,24.41,0,0,0,.59-4.77c0-4.92-3-9.39-9.53-9.39-7.45,0-13,6.11-14.9,14.16Z"/><path class="cls-1" d="M359.29,119.16C355.42,121.4,349.16,123,342,123c-14.3,0-22.2-7.9-22.2-20.42,0-11,.9-21.6.9-33.82V28.28C320.71,17,320,10.85,318,4.89L338.14.57c2.38,4.17,5.21,11.47,5.21,23.69V67c0,13.11-.74,20.85-.74,27.26s2.23,7.6,6.26,7.6a18.86,18.86,0,0,0,7.3-1.64Z"/><path class="cls-1" d="M448.1,115.88c-4,4.77-8.79,7-15.8,7a16.26,16.26,0,0,1-15.19-10.28,32.94,32.94,0,0,1-23.84,10.28c-15,0-22.65-9.39-22.65-21.46,0-10.87,6.26-18.77,19.37-22.35,11.77-3.12,16.84-4.47,24.29-7.59V69c0-5.51-3.13-8.34-10.73-8.34-4.32,0-11.77.89-11.77,7a13.88,13.88,0,0,0,.74,4.17l-17,5.07a26.06,26.06,0,0,1-3.13-12.07c0-9.53,6.11-22.94,31.59-22.94,20.56,0,31.13,8.94,31.13,27.26,0,7-2.23,19.52-2.23,28.16,0,6.56,1.34,7.9,3.58,7.9a6.63,6.63,0,0,0,4.46-1.94ZM413.53,96.66c0-2.53.15-6.1.3-8.93-4.32,2.08-9.69,3.72-17.73,6.4-2.24.75-4.92,2.39-4.92,6.41,0,3.57,2.39,5.36,6.41,5.36C402.65,105.9,409.06,102.48,413.53,96.66Z"/></g></g></svg>